<?xml version="1.0" encoding="utf-8"?>
<!-- Generator: Adobe Illustrator 16.2.1, SVG Export Plug-In . SVG Version: 6.00 Build 0)  -->
<!DOCTYPE svg PUBLIC "-//W3C//DTD SVG 1.1//EN" "http://www.w3.org/Graphics/SVG/1.1/DTD/svg11.dtd">
<svg version="1.1" id="ANGEBOTE" xmlns="http://www.w3.org/2000/svg" xmlns:xlink="http://www.w3.org/1999/xlink" x="0px" y="0px"
	 width="64px" height="64px" viewBox="0 0 64 64" style="enable-background:new 0 0 64 64;" xml:space="preserve">
<style type="text/css">
<![CDATA[
	.st0{fill-rule:evenodd;clip-rule:evenodd;fill:#FFFFFF;}
	.st1{fill:#DA202C;}
]]>
</style>
<polygon id="bg" class="st1" points="31.997,5.492 37.065,0 40.188,6.786 46.707,3.132 47.582,10.554 54.91,9.086 53.443,16.416 
	60.87,17.29 57.211,23.807 64,26.931 58.505,32 64,37.069 57.211,40.19 60.87,46.709 53.443,47.579 54.91,54.905 47.582,53.444 
	46.707,60.866 40.188,57.208 37.065,64 31.997,58.506 26.928,64 23.805,57.208 17.29,60.866 16.418,53.444 9.089,54.905 
	10.553,47.579 3.129,46.709 6.789,40.19 0,37.069 5.491,32 0,26.931 6.789,23.807 3.129,17.29 10.553,16.416 9.089,9.086 
	16.418,10.554 17.29,3.132 23.805,6.786 26.928,0 "/>
<path id="attention_2_" class="st0" d="M31.996,37.629c-1.93,0-3.496,1.564-3.496,3.495c0,1.942,1.566,3.506,3.496,3.506
	c1.941,0,3.504-1.572,3.504-3.506C35.5,39.194,33.937,37.629,31.996,37.629L31.996,37.629z M28.5,22.864
	c0,0.207,0.02,0.404,0.051,0.592l1.719,10.214c0.146,0.822,0.863,1.454,1.727,1.454c0.873,0,1.59-0.632,1.727-1.454l1.729-10.214
	c0.035-0.188,0.049-0.385,0.049-0.592c0-1.931-1.562-3.495-3.504-3.495C30.066,19.37,28.5,20.934,28.5,22.864L28.5,22.864z
	 M28.5,22.864"/>
</svg>
