<?xml version="1.0" encoding="utf-8"?>
<!-- Generator: Adobe Illustrator 17.1.0, SVG Export Plug-In . SVG Version: 6.00 Build 0)  -->
<!DOCTYPE svg PUBLIC "-//W3C//DTD SVG 1.1//EN" "http://www.w3.org/Graphics/SVG/1.1/DTD/svg11.dtd">
<svg version="1.1" id="Wappen_1_" xmlns="http://www.w3.org/2000/svg" xmlns:xlink="http://www.w3.org/1999/xlink" x="0px" y="0px"
	 viewBox="0 0 45.6 57" style="enable-background:new 0 0 45.6 57;" xml:space="preserve">
<style type="text/css">
	.st0{fill:#D5121E;}
	.st1{fill:#FFFFFF;}
</style>
<g>
	<path class="st0" d="M22.8,57l-0.1,0C8.9,54.2,0,44.1,0,31.3V2.8l0.5-0.1C7.7,0.9,15.3,0,22.8,0c7.5,0,15.1,0.9,22.3,2.7l0.5,0.1
		v28.5c0,12.8-8.9,22.8-22.7,25.7L22.8,57z"/>
</g>
<path class="st1" d="M17.6,29.5c0-1.3,0.7-2.4,3.1-2.4v-0.2c-0.4-0.1-0.8-0.2-1.2-0.2c-2.4,0-4.3,1.8-4.3,3.9
	c0,5.6,8.8,7.9,8.8,13.8c0,3.8-4.6,6.6-11.1,7.5c0,0,0,0,0,0c2.9,1.7,6.2,3,9.8,3.8c4-0.8,7.5-2.3,10.5-4.2c0.6-1.3,1-2.7,1-4.1
	C34.3,36.4,17.6,35,17.6,29.5z"/>
<polygon class="st1" points="25.6,28.8 23.7,28.8 23.7,26.8 21.9,26.8 21.9,28.8 20,28.8 20,30.5 21.9,30.5 21.9,32.5 23.7,32.5 
	23.7,30.5 25.6,30.5 "/>
<g id="Grand_Tour">
	<g>
		<g>
			<g>
				<path class="st1" d="M7.1,12c0,1.7-0.5,3-2,3c-1.6,0-2.1-1.5-2.1-3c0-1.5,0.4-3,2.1-3c1,0,1.5,0.5,1.8,1.3l-1,0.6
					c-0.1-0.5-0.4-0.8-0.8-0.8c-0.8,0-1,0.9-1,2c0,1.1,0.2,2,1,2c0.7,0,0.8-0.7,0.8-1.2H5.2v-1.1h1.9V12z"/>
				<path class="st1" d="M10.2,14.9l-0.7-1.8c-0.1,0-0.2,0-0.3,0H8.9v1.8H7.8V9h1.6c1.3,0,1.9,1,1.9,2c0,0.7-0.3,1.3-0.8,1.7
					l0.9,2.2H10.2z M9.3,12c0.6,0,0.9-0.4,0.9-1c0-0.6-0.3-1-0.9-1H8.9v2H9.3z"/>
				<path class="st1" d="M14.7,14.9L14.5,14h-1.4l-0.2,0.9h-1.1L13.2,9h1.3l1.4,5.9H14.7z M13.9,11.1c0-0.2-0.1-0.5-0.1-0.5h0
					c0,0-0.1,0.3-0.1,0.5L13.3,13h1L13.9,11.1z"/>
				<path class="st1" d="M19,14.9l-1.5-3.3c-0.1-0.2-0.1-0.4-0.1-0.4h0c0,0,0,0.3,0,0.4v3.3h-1V9h1l1.5,3.2c0.1,0.1,0.1,0.4,0.1,0.4
					h0c0,0,0-0.3,0-0.4V9h1v5.9H19z"/>
				<path class="st1" d="M21,14.9V9h1.5c1.6,0,2.2,1.4,2.2,3c0,1.5-0.5,3-2.2,3H21z M22.6,13.8c0.8,0,1.1-0.8,1.1-1.9
					c0-1.1-0.3-1.9-1.1-1.9h-0.4v3.8H22.6z"/>
			</g>
			<g>
				<path class="st1" d="M27.2,14.9V10h-1V9h3.2V10h-1v4.9H27.2z"/>
				<path class="st1" d="M29.6,11.9c0-1.6,0.5-3,2-3c1.5,0,2,1.4,2,3c0,1.6-0.5,3-2,3C30.1,15,29.6,13.6,29.6,11.9z M32.6,11.9
					c0-1.2-0.3-2-0.9-2c-0.7,0-0.9,0.8-0.9,2c0,1.2,0.3,2,0.9,2C32.3,13.9,32.6,13.2,32.6,11.9z"/>
				<path class="st1" d="M36.9,9H38v3.9c0,1.4-0.8,2.1-1.8,2.1s-1.8-0.6-1.8-2.1V9h1.1v4c0,0.6,0.2,0.9,0.7,0.9c0.5,0,0.7-0.4,0.7-1
					V9z"/>
				<path class="st1" d="M41.3,14.9l-0.7-1.8c-0.1,0-0.2,0-0.3,0h-0.4v1.8h-1.1V9h1.6c1.3,0,1.9,1,1.9,2c0,0.7-0.3,1.3-0.8,1.7
					l0.9,2.2H41.3z M40.3,12c0.6,0,0.9-0.4,0.9-1c0-0.6-0.3-1-0.9-1h-0.4v2H40.3z"/>
			</g>
		</g>
		<g>
			<path class="st1" d="M3.2,19.8c0-1.1,0.4-1.8,1.4-1.8c0.9,0,1.4,0.7,1.4,1.8c0,1.1-0.4,1.8-1.4,1.8C3.6,21.6,3.2,20.9,3.2,19.8z
				 M5.1,19.8c0-0.5-0.1-1.1-0.6-1.1c-0.5,0-0.6,0.5-0.6,1.1c0,0.5,0.1,1.1,0.6,1.1C5,20.9,5.1,20.4,5.1,19.8z"/>
			<path class="st1" d="M6.8,21.6v-2.8H6.4v-0.7h0.4c0-0.8,0.4-1.4,1.5-1.2l-0.1,0.7C8,17.6,8,17.6,7.9,17.6c-0.2,0-0.3,0.1-0.3,0.4
				v0.1h0.5v0.7H7.6v2.8H6.8z"/>
			<path class="st1" d="M11,20.3c0.1,0.3,0.4,0.5,0.7,0.5c0.3,0,0.6-0.1,0.6-0.5c0-0.7-1.8-0.7-1.8-2c0-0.7,0.5-1.2,1.2-1.2
				c0.7,0,1.1,0.4,1.3,0.9l-0.7,0.4C12.1,18.2,12,18,11.6,18c-0.2,0-0.4,0.1-0.4,0.4c0,0.8,1.8,0.6,1.8,2c0,0.8-0.6,1.2-1.4,1.2
				c-0.7,0-1.1-0.3-1.4-0.8L11,20.3z"/>
			<path class="st1" d="M16.4,21.6l-0.5-1.9c0-0.2-0.1-0.4-0.1-0.4h0c0,0,0,0.2-0.1,0.4l-0.5,1.9h-0.9l-0.9-3.4h0.9l0.4,2
				c0,0.2,0.1,0.4,0.1,0.4h0c0,0,0-0.3,0.1-0.4l0.5-2.1h0.7l0.5,2.1c0,0.2,0.1,0.4,0.1,0.4h0c0,0,0-0.3,0.1-0.4l0.4-2.1h0.9
				l-0.9,3.4H16.4z"/>
			<path class="st1" d="M18.7,17.3c0-0.3,0.2-0.5,0.5-0.5c0.3,0,0.5,0.2,0.5,0.5c0,0.3-0.2,0.5-0.5,0.5
				C18.9,17.8,18.7,17.6,18.7,17.3z M18.7,21.6v-3.5h0.8v3.5H18.7z"/>
			<path class="st1" d="M22.1,21.6c-0.1,0-0.3,0.1-0.5,0.1c-0.7,0-1-0.4-1-1.1v-1.8h-0.4v-0.7h0.4v-1h0.8v1H22v0.7h-0.7v1.7
				c0,0.2,0.2,0.4,0.4,0.4c0.1,0,0.2,0,0.3-0.1L22.1,21.6z"/>
			<path class="st1" d="M22.6,21.6L22.6,21.6l1.2-2.4c0.1-0.2,0.2-0.3,0.2-0.3v0h-1.1v-0.8h2.4v0L24,20.5c-0.1,0.2-0.2,0.3-0.2,0.3
				v0H25v0.8H22.6z"/>
			<path class="st1" d="M26.5,20.1c0,0.5,0.2,0.8,0.7,0.8c0.3,0,0.5-0.2,0.6-0.5l0.6,0.5c-0.3,0.4-0.6,0.7-1.3,0.7
				c-0.9,0-1.3-0.7-1.3-1.8c0-1.1,0.5-1.8,1.3-1.8c1.1,0,1.3,0.9,1.3,1.8v0.2H26.5z M27.5,19.5c0-0.4-0.1-0.8-0.5-0.8
				c-0.4,0-0.5,0.4-0.6,0.8H27.5z"/>
			<path class="st1" d="M29,21.6v-3c0-0.1,0-0.3-0.1-0.5h0.7c0,0,0.1,0.2,0.1,0.5h0c0.2-0.4,0.5-0.6,1-0.6L30.7,19c0,0-0.1,0-0.2,0
				c-0.4,0-0.6,0.3-0.6,0.7v1.9H29z"/>
			<path class="st1" d="M31.4,21.6v-4.5h0.8v4.5H31.4z"/>
			<path class="st1" d="M34.7,21.6c-0.1-0.1-0.1-0.2-0.1-0.4h0c-0.1,0.2-0.4,0.4-0.8,0.4c-0.6,0-0.9-0.5-0.9-1
				c0-0.6,0.5-1.1,1.7-1.1v-0.1c0-0.4-0.1-0.6-0.5-0.6c-0.3,0-0.5,0.2-0.6,0.5L33,18.7c0.3-0.4,0.8-0.6,1.2-0.6
				c0.6,0,1.1,0.4,1.1,1.4v1.6c0,0.2,0,0.3,0.1,0.5H34.7z M34.6,20.1c-0.5,0-1,0.2-1,0.5c0,0.3,0.2,0.4,0.3,0.4
				c0.4,0,0.6-0.3,0.6-0.7V20.1z"/>
			<path class="st1" d="M38.1,21.6v-2.2c0-0.3-0.1-0.7-0.5-0.7c-0.3,0-0.5,0.3-0.5,0.6v2.2h-0.8v-3c0-0.1,0-0.3-0.1-0.5h0.7
				c0,0,0.1,0.2,0.1,0.4h0c0.2-0.3,0.5-0.4,0.8-0.4c0.8,0,1,0.6,1,1.3v2.2H38.1z"/>
			<path class="st1" d="M41.6,21.6c0-0.1-0.1-0.2-0.1-0.3h0c-0.1,0.2-0.4,0.4-0.8,0.4c-0.7,0-1.1-0.7-1.1-1.8c0-1.1,0.5-1.8,1.2-1.8
				c0.3,0,0.5,0.1,0.6,0.2h0c0,0,0-0.2,0-0.3v-0.9h0.8v4c0,0.1,0,0.3,0.1,0.5H41.6z M41.4,19.3c0-0.3-0.2-0.6-0.5-0.6
				c-0.5,0-0.5,0.6-0.5,1.1c0,0.5,0.1,1.1,0.5,1.1c0.3,0,0.5-0.3,0.5-0.5V19.3z"/>
		</g>
	</g>
</g>
</svg>
