<?xml version="1.0" encoding="utf-8"?>
<!-- Generator: Adobe Illustrator 16.2.1, SVG Export Plug-In . SVG Version: 6.00 Build 0)  -->
<!DOCTYPE svg PUBLIC "-//W3C//DTD SVG 1.1//EN" "http://www.w3.org/Graphics/SVG/1.1/DTD/svg11.dtd">
<svg version="1.1" id="NAVIGATION" xmlns="http://www.w3.org/2000/svg" xmlns:xlink="http://www.w3.org/1999/xlink" x="0px" y="0px"
	 width="64px" height="64px" viewBox="0 0 64 64" style="enable-background:new 0 0 64 64;" xml:space="preserve">
<style type="text/css">
<![CDATA[
	.st0{fill:#FFFFFF;}
	.st1{fill:#DA202C;}
]]>
</style>
<path id="bg_1_" class="st1" d="M64,32.002C64,49.672,49.672,64,31.998,64C14.328,64,0,49.672,0,32.002C0,14.328,14.328,0,31.998,0
	C49.672,0,64,14.328,64,32.002z"/>
<path id="pfeil" class="st0" d="M20.117,29.931l20.785-8.685c0.465-0.195,1.003-0.097,1.371,0.254
	c0.364,0.35,0.488,0.881,0.314,1.359l-7.726,21.158c-0.179,0.486-0.635,0.818-1.151,0.836c-0.522,0.018-0.999-0.281-1.211-0.758
	l-3.531-7.967c-0.134-0.309-0.389-0.551-0.701-0.672l-8.121-3.162c-0.488-0.188-0.807-0.65-0.811-1.171
	C19.326,30.604,19.636,30.133,20.117,29.931L20.117,29.931z M20.117,29.931"/>
</svg>
